#!OML:ASF F:\VICON\USERDATA\INSTALL\Justin_Nancy\Justin_Nancy.ASF
:FULLY-SPECIFIED
:DEGREES
48
root 9.18778 15.5047 -3.28225 -9.38251 -56.1044 21.6881
lowerback 20.5846 -0.902794 -8.53204
upperback 2.52113 -3.48892 -2.74313
thorax -8.43986 -1.48988 2.80329
lowerneck -17.9399 2.69183 -10.1005
upperneck 13.7266 4.89572 7.73367
head 6.66464 2.538 4.6848
rclavicle -8.39865e-014 -2.99171e-014
rhumerus -57.4657 9.28736 -89.3082
rradius 102.233
rwrist -1.37343
rhand -17.7779 25.7042
rfingers 7.12502
rthumb 8.48466 -4.10535
lclavicle -8.39865e-014 -2.99171e-014
lhumerus -33.7707 -21.7084 96.0067
lradius 108.258
lwrist 19.1577
lhand -14.8725 5.39188
lfingers 7.12502
lthumb 11.2877 35.0682
rfemur -60.2292 -21.5582 43.0985
rtibia 81.3046
rfoot -15.2412 -2.48445
rtoes -4.41708
lfemur -10.947 4.97957 -10.9998
ltibia 40.0562
lfoot -24.3787 1.00342
ltoes -25.5561
49
root 8.98104 15.5603 -2.92809 -8.84844 -57.0587 21.2212
lowerback 20.18 -1.13921 -7.64086
upperback 2.85709 -3.55349 -2.88019
thorax -7.90629 -1.58538 2.15024
lowerneck -17.9455 2.47665 -10.2362
upperneck 13.2061 4.61248 7.9746
head 6.51596 2.42822 4.74384
rclavicle 4.12478e-015 3.0265e-014
rhumerus -58.444 8.37807 -89.2238
rradius 102.482
rwrist -1.18502
rhand -19.167 25.7977
rfingers 7.12502
rthumb 7.14396 -4.06167
lclavicle 4.12478e-015 3.0265e-014
lhumerus -32.2062 -22.0463 95.2702
lradius 108.814
lwrist 19.3094
lhand -15.2042 5.31676
lfingers 7.12502
lthumb 10.9678 35.0103
rfemur -59.8225 -21.6346 45.7612
rtibia 76.7677
rfoot -14.6675 -0.739635
rtoes -4.60252
lfemur -9.61909 4.40763 -11.3942
ltibia 40.1172
lfoot -23.9489 1.83875
ltoes -26.3086
50
root 8.76835 15.6255 -2.63989 -5.82903 -57.8538 18.6967
lowerback 19.4058 -1.56753 -6.26326
upperback 2.97904 -3.706 -2.59841
thorax -7.40762 -1.71126 1.68622
lowerneck -17.9552 2.33801 -10.2148
upperneck 12.611 4.4002 8.19859
head 6.34272 2.35936 4.77639
rclavicle 2.08848e-014 -4.69629e-015
rhumerus -59.2795 7.55651 -89.328
rradius 102.578
rwrist -0.963443
rhand -20.768 25.9387
rfingers 7.12502
rthumb 5.59836 -3.96731
lclavicle 2.08848e-014 -4.69629e-015
lhumerus -30.9173 -22.0618 94.5999
lradius 109.462
lwrist 19.1819
lhand -15.2459 4.69013
lfingers 7.12502
lthumb 10.9276 34.3858
rfemur -59.6127 -21.1924 49.8559
rtibia 71.72
rfoot -13.9337 0.885605
rtoes -2.16635
lfemur -9.11176 5.40905 -10.2672
ltibia 40.2461
lfoot -23.0129 3.47544
ltoes -37.5154
51
root 8.51731 15.706 -2.31775 -9.15373 -58.3244 22.4944
lowerback 19.1191 -1.55724 -8.14583
upperback 3.30493 -4.09999 -3.17358
thorax -6.78296 -1.90412 2.19152
lowerneck -17.9465 2.2119 -10.3485
upperneck 12.273 4.23594 8.42862
head 6.24118 2.30016 4.8485
rclavicle 6.21202e-015 -5.76476e-015
rhumerus -60.2526 6.98825 -89.3159
rradius 102.9
rwrist -1.50027
rhand -20.9386 26.1023
rfingers 7.12502
rthumb 5.43361 -3.80805
lclavicle 6.21202e-015 -5.76476e-015
lhumerus -30.2252 -21.3871 94.385
lradius 110.371
lwrist 19.2769
lhand -15.6884 4.15548
lfingers 7.12502
lthumb 10.5007 33.8732
rfemur -58.4936 -21.769 49.5713
rtibia 67.1519
rfoot -12.921 2.83398
rtoes 0.137375
lfemur -7.07043 5.89045 -12.9766
ltibia 40.3449
lfoot -22.0818 4.90079
ltoes -43.1436
52
root 8.27982 15.7625 -2.01296 -10.0272 -58.8145 23.6057
lowerback 19.2525 -1.6823 -8.94935
upperback 3.32434 -4.44963 -3.21925
thorax -6.74371 -2.06022 2.67484
lowerneck -17.7567 2.00742 -10.9199
upperneck 12.0821 3.98879 9.07135
head 6.14696 2.20994 5.1209
rclavicle -3.37437e-014 3.29983e-014
rhumerus -61.5146 6.78307 -89.2814
rradius 103.428
rwrist -2.42839
rhand -21.316 25.9896
rfingers 7.12502
rthumb 5.06921 -3.92978
lclavicle -3.37437e-014 3.29983e-014
lhumerus -29.8503 -20.2422 94.346
lradius 111.4
lwrist 20.5347
lhand -16.1662 3.90559
lfingers 7.12502
lthumb 10.0398 33.6461
rfemur -57.1264 -22.0934 50.8157
rtibia 62.2362
rfoot -11.5072 3.65719
rtoes 1.20171
lfemur -6.66358 4.96916 -13.5184
ltibia 40.5775
lfoot -19.8744 0.444241
ltoes -39.3876
53
root 8.02637 15.8437 -1.71867 -10.5823 -59.434 24.406
lowerback 19.0906 -1.75545 -9.44384
upperback 3.42186 -4.62842 -3.27946
thorax -6.4968 -2.15444 2.91216
lowerneck -17.4661 1.74551 -11.328
upperneck 11.7717 3.62646 9.65085
head 6.01927 2.06481 5.33091
rclavicle 3.57812e-015 2.38542e-015
rhumerus -62.689 6.58191 -89.3067
rradius 104.005
rwrist -3.23925
rhand -22.4613 25.8315
rfingers 7.12502
rthumb 3.96333 -4.1114
lclavicle 3.57812e-015 2.38542e-015
lhumerus -29.3681 -19.2859 94.2065
lradius 112.294
lwrist 21.9543
lhand -16.8956 3.66569
lfingers 7.12502
lthumb 9.33608 33.439
rfemur -55.3684 -22.2227 51.979
rtibia 57.3197
rfoot -9.91273 3.893
rtoes 1.13031
lfemur -5.72485 5.58571 -13.9353
ltibia 41.0135
lfoot -17.4385 -1.89295
ltoes -41.8519
54
root 7.76589 15.9294 -1.42396 -10.9865 -60.0439 24.9038
lowerback 18.9477 -1.91794 -9.64438
upperback 3.50894 -4.86367 -3.32426
thorax -6.28571 -2.28011 3.01546
lowerneck -17.2489 1.57307 -11.5303
upperneck 11.7503 3.3621 10.0235
head 5.99525 1.95427 5.45929
rclavicle 5.99336e-014 5.96354e-015
rhumerus -63.8431 6.62961 -89.3547
rradius 104.616
rwrist -4.01338
rhand -22.7277 26.0229
rfingers 7.12502
rthumb 3.7061 -3.92462
lclavicle 5.99336e-014 5.96354e-015
lhumerus -29.2722 -18.2559 94.3199
lradius 113.035
lwrist 22.145
lhand -18.0421 3.52754
lfingers 7.12502
lthumb 8.22966 33.3473
rfemur -53.1679 -22.3072 52.78
rtibia 52.4333
rfoot -8.02939 4.20763
rtoes 0.874549
lfemur -5.15844 5.48629 -13.9402
ltibia 41.7477
lfoot -13.0512 -6.74642
ltoes -38.377
55
root 7.50377 16.0101 -1.13084 -11.5206 -60.6531 25.4913
lowerback 19.0666 -2.00841 -9.89656
upperback 3.38658 -5.05959 -3.33433
thorax -6.43991 -2.35817 3.19783
lowerneck -16.7433 1.34607 -11.8173
upperneck 11.808 2.99945 10.4472
head 5.95872 1.78818 5.60612
rclavicle 4.87022e-015 2.46493e-014
rhumerus -65.1714 6.76016 -89.3664
rradius 105.202
rwrist -4.65356
rhand -22.017 26.4478
rfingers 7.12502
rthumb 4.39237 -3.48662
lclavicle 4.87022e-015 2.46493e-014
lhumerus -28.6303 -17.5197 92.5152
lradius 113.536
lwrist 24.2202
lhand -18.9009 3.58772
lfingers 7.12502
lthumb 7.40085 33.4383
rfemur -50.6923 -22.0213 52.9544
rtibia 47.8582
rfoot -5.98549 4.57882
rtoes 5.97404
lfemur -5.07546 5.37112 -13.7864
ltibia 42.8399
lfoot -6.58028 -11.0958
ltoes -31.4705
56
root 7.24973 16.0578 -0.830763 -11.7424 -61.6234 25.7226
lowerback 18.3841 -1.93899 -9.04052
upperback 3.78233 -4.74455 -3.89194
thorax -5.80268 -2.27706 2.00958
lowerneck -16.2012 0.787926 -12.0486
upperneck 11.2614 2.1124 11.4426
head 5.78778 1.41971 5.87434
rclavicle 5.30755e-014 -2.38542e-014
rhumerus -65.6719 5.62495 -89.7962
rradius 105.787
rwrist -4.86002
rhand -21.0277 26.7897
rfingers 7.12502
rthumb 5.3476 -3.12282
lclavicle 5.30755e-014 -2.38542e-014
lhumerus -27.8706 -17.6689 90.8958
lradius 113.83
lwrist 25.3109
lhand -19.043 3.48159
lfingers 7.12502
lthumb 7.26366 33.3369
rfemur -47.9531 -20.9158 52.819
rtibia 43.799
rfoot -3.83514 4.36495
rtoes 9.27017
lfemur -5.07354 6.27748 -13.3617
ltibia 43.9231
lfoot -0.0852126 -14.9159
ltoes -31.3171
57
root 6.99628 16.0772 -0.527572 -12.935 -62.9634 26.8703
lowerback 18.8625 -1.79098 -9.87527
upperback 3.27272 -4.79659 -3.68579
thorax -6.52199 -2.23254 2.74326
lowerneck -15.2742 0.82332 -12.5186
upperneck 11.4887 2.11235 11.6792
head 5.69317 1.39105 6.01685
rclavicle 1.90833e-014 1.90833e-014
rhumerus -67.188 6.50557 -89.6051
rradius 106.545
rwrist -4.91546
rhand -20.1745 26.8243
rfingers 7.12502
rthumb 6.1713 -3.06582
lclavicle 1.90833e-014 1.90833e-014
lhumerus -28.8581 -15.4847 90.7277
lradius 114.03
lwrist 24.7521
lhand -18.736 3.02834
lfingers 7.12502
lthumb 7.55995 32.8732
rfemur -44.8767 -19.1065 51.8682
rtibia 40.3646
rfoot -1.83645 3.38955
rtoes 10.7444
lfemur -4.8551 7.53824 -13.2847
ltibia 45.0565
lfoot 6.78931 -19.067
ltoes -32.7083
58
root 6.72276 16.1341 -0.212311 -13.7954 -63.0749 27.8559
lowerback 18.3533 -2.04021 -9.43479
upperback 3.36919 -5.00736 -4.13082
thorax -6.20072 -2.37101 2.03847
lowerneck -14.6722 0.539939 -12.4676
upperneck 11.4146 1.60116 11.998
head 5.63172 1.15224 6.05972
rclavicle -8.05078e-014 -1.07344e-014
rhumerus -67.8306 6.12547 -89.7242
rradius 107.282
rwrist -4.70198
rhand -19.8821 27.0953
rfingers 7.12502
rthumb 6.45363 -2.78635
lclavicle -8.05078e-014 -1.07344e-014
lhumerus -28.9355 -14.4989 89.7362
lradius 113.704
lwrist 23.6343
lhand -18.2589 2.52831
lfingers 7.12502
lthumb 8.02048 32.3561
rfemur -42.5215 -18.0733 50.5406
rtibia 37.6643
rfoot -0.227729 2.05148
rtoes 12.2345
lfemur -5.41595 6.55346 -13.5577
ltibia 46.4224
lfoot 13.3639 -21.952
ltoes -15.4172
